<svg width="32" height="32" viewBox="0 0 32 32" fill="none" xmlns="http://www.w3.org/2000/svg">
<path d="M22 12C22 15.3137 19.3137 18 16 18C12.6863 18 10 15.3137 10 12C10 8.68629 12.6863 6 16 6C19.3137 6 22 8.68629 22 12Z" fill="white"/>
<path fill-rule="evenodd" clip-rule="evenodd" d="M0 16C0 7.16344 7.16344 0 16 0C24.8366 0 32 7.16344 32 16C32 24.8366 24.8366 32 16 32C7.16344 32 0 24.8366 0 16ZM16 2C8.26801 2 2 8.26801 2 16C2 19.3069 3.14651 22.3459 5.06372 24.7414C6.48586 22.4505 9.60928 20 16 20C22.3907 20 25.5142 22.4505 26.9363 24.7414C28.8535 22.3459 30 19.3069 30 16C30 8.26801 23.732 2 16 2Z" fill="white"/>
</svg>
