<svg width="32" height="32" viewBox="0 0 32 32" fill="none" xmlns="http://www.w3.org/2000/svg">
<path d="M31.0032 3.87868C31.3937 4.2692 31.3937 4.90237 31.0032 5.29289L28.9174 7.37866L24.9174 3.37866L27.0032 1.29289C27.3937 0.902369 28.0269 0.902369 28.4174 1.29289L31.0032 3.87868Z" fill="white"/>
<path d="M27.5032 8.79287L23.5032 4.79287L9.87722 18.4189C9.76745 18.5286 9.68474 18.6625 9.63564 18.8097L8.02652 23.6371C7.89623 24.028 8.2681 24.3999 8.65898 24.2696L13.4863 22.6604C13.6336 22.6113 13.7674 22.5286 13.8772 22.4189L27.5032 8.79287Z" fill="white"/>
<path fill-rule="evenodd" clip-rule="evenodd" d="M2 27C2 28.6569 3.34315 30 5 30H27C28.6569 30 30 28.6569 30 27V15C30 14.4477 29.5523 14 29 14C28.4477 14 28 14.4477 28 15V27C28 27.5523 27.5523 28 27 28H5C4.44772 28 4 27.5523 4 27V5C4 4.44772 4.44772 4 5 4H18C18.5523 4 19 3.55228 19 3C19 2.44772 18.5523 2 18 2H5C3.34315 2 2 3.34315 2 5V27Z" fill="white"/>
</svg>
