<svg width="32" height="32" viewBox="0 0 32 32" fill="none" xmlns="http://www.w3.org/2000/svg">
<path d="M2 0L0 2L4.40177 8.16248C4.77719 8.68807 5.38333 9 6.02924 9H6.17157C6.70201 9 7.21071 9.21071 7.58579 9.58579L12.9358 14.9358L7.70197 20.2448C7.16241 20.0855 6.59119 20 6 20C2.68629 20 0 22.6863 0 26C0 29.3137 2.68629 32 6 32C9.31371 32 12 29.3137 12 26C12 25.4088 11.9145 24.8376 11.7552 24.298L17.0642 19.0642L19 21L18.3909 22.8274C18.1513 23.546 18.3384 24.3384 18.874 24.874L25.4142 31.4142C25.8047 31.8047 26.3166 32 26.8284 32C27.3403 32 27.8521 31.8047 28.2426 31.4142L31.4142 28.2426C31.8047 27.8521 32 27.3403 32 26.8284C32 26.3166 31.8047 25.8047 31.4142 25.4142L24.874 18.874C24.3384 18.3384 23.546 18.1513 22.8274 18.3909L21 19L19.0785 17.0785L24.4383 11.7947C24.9362 11.9286 25.4598 12 26 12C29.3137 12 32 9.31371 32 6C32 5.46252 31.9293 4.94155 31.7968 4.44587L27.5147 8.72792L24 7.99997L23.2721 4.48528L27.5541 0.20323C27.0584 0.0706717 26.5375 0 26 0C22.6863 0 20 2.68629 20 6C20 6.54025 20.0714 7.06382 20.2053 7.56179L14.9215 12.9215L9.58579 7.58579C9.21071 7.21071 9 6.70201 9 6.17157V6.02924C9 5.38333 8.68807 4.77719 8.16248 4.40177L2 0ZM21.2929 21.2929C21.6834 20.9024 22.3166 20.9024 22.7071 21.2929L28.5355 27.1213C28.9261 27.5118 28.9261 28.145 28.5355 28.5355C28.145 28.9261 27.5118 28.9261 27.1213 28.5355L21.2929 22.7071C20.9024 22.3166 20.9024 21.6834 21.2929 21.2929ZM6 22L6.9421 22.484L8 22.5359L8.57387 23.4261L9.4641 24L9.51597 25.0579L10 26L9.51597 26.9421L9.4641 28L8.57387 28.5738L8 29.4641L6.9421 29.5159L6 30L5.0579 29.5159L4 29.4641L3.42613 28.5738L2.5359 28L2.48403 26.9421L2 26L2.48403 25.0579L2.5359 24L3.42613 23.4261L4 22.5359L5.0579 22.484L6 22Z" fill="white"/>
</svg>
